<svg width="21" height="18" viewBox="0 0 21 18" fill="none" xmlns="http://www.w3.org/2000/svg">
<path d="M10.5001 0C5.23778 0 0.970589 4.13135 0.970589 9.22785C0.970589 13.305 3.70108 16.764 7.48744 17.9841C7.96369 18.0696 8.13854 17.784 8.13854 17.5402C8.13854 17.3202 8.1297 16.5933 8.1256 15.8222C5.47448 16.3804 4.91507 14.7334 4.91507 14.7334C4.48158 13.6668 3.85699 13.3832 3.85699 13.3832C2.99238 12.8105 3.92216 12.8222 3.92216 12.8222C4.87909 12.8873 5.38296 13.7732 5.38296 13.7732C6.23289 15.1839 7.61226 14.7761 8.15605 14.5403C8.24158 13.9439 8.48855 13.5368 8.76107 13.3063C6.64444 13.073 4.4194 12.2818 4.4194 8.74589C4.4194 7.73842 4.79166 6.91524 5.40126 6.26901C5.30232 6.03658 4.97614 5.09803 5.49358 3.82696C5.49358 3.82696 6.2938 3.57895 8.11487 4.77285C8.87501 4.56839 9.69023 4.46586 10.5001 4.46234C11.3099 4.46586 12.1258 4.56839 12.8873 4.77285C14.7062 3.57895 15.5053 3.82696 15.5053 3.82696C16.024 5.09803 15.6977 6.03658 15.5987 6.26901C16.2098 6.91524 16.5795 7.73842 16.5795 8.74589C16.5795 12.2902 14.3502 13.0706 12.2282 13.299C12.57 13.5854 12.8746 14.1469 12.8746 15.0079C12.8746 16.2426 12.8635 17.2363 12.8635 17.5402C12.8635 17.7858 13.035 18.0735 13.5181 17.9829C17.3024 16.7614 20.0294 13.3036 20.0294 9.22785C20.0294 4.13135 15.7629 0 10.5001 0ZM4.53969 13.1453C4.5187 13.1911 4.44422 13.2049 4.37637 13.1734C4.30725 13.1433 4.26843 13.0808 4.29084 13.0348C4.31135 12.9876 4.38599 12.9744 4.45495 13.0061C4.52423 13.0362 4.56368 13.0993 4.53969 13.1453ZM5.00844 13.5503C4.96299 13.5911 4.87415 13.5721 4.81386 13.5077C4.75153 13.4433 4.73985 13.3573 4.78593 13.3159C4.8328 13.2751 4.91896 13.2942 4.98145 13.3585C5.04379 13.4236 5.05594 13.509 5.00844 13.5503ZM5.33001 14.0685C5.27163 14.1078 5.17616 14.0709 5.11714 13.9889C5.05875 13.9068 5.05875 13.8084 5.1184 13.769C5.17758 13.7296 5.27163 13.765 5.33143 13.8465C5.38966 13.9299 5.38966 14.0283 5.33001 14.0685ZM5.87387 14.6686C5.82164 14.7244 5.71038 14.7094 5.62896 14.6333C5.54564 14.5589 5.52244 14.4533 5.57483 14.3976C5.6277 14.3416 5.73958 14.3574 5.82164 14.4329C5.90433 14.5071 5.92957 14.6135 5.87387 14.6686ZM6.57675 14.8713C6.55371 14.9435 6.44656 14.9764 6.33862 14.9457C6.23084 14.914 6.1603 14.8294 6.18208 14.7563C6.20449 14.6836 6.31211 14.6494 6.42084 14.6822C6.52846 14.7137 6.59916 14.7978 6.57675 14.8713ZM7.37666 14.9572C7.37934 15.0333 7.28781 15.0964 7.17451 15.0978C7.06057 15.1002 6.96842 15.0386 6.96715 14.9638C6.96715 14.8869 7.05663 14.8244 7.17056 14.8226C7.28387 14.8204 7.37666 14.8816 7.37666 14.9572ZM8.16248 14.928C8.17605 15.0023 8.0973 15.0785 7.98479 15.0989C7.87417 15.1184 7.77175 15.0726 7.75771 14.9989C7.74398 14.9228 7.82414 14.8466 7.93461 14.8269C8.04728 14.8079 8.14812 14.8525 8.16248 14.928Z" fill="#161614"/>
</svg>
